<?xml version="1.0" encoding="utf-8"?>
<!-- Generator: Adobe Illustrator 19.1.0, SVG Export Plug-In . SVG Version: 6.00 Build 0)  -->
<!DOCTYPE svg PUBLIC "-//W3C//DTD SVG 1.1//EN" "http://www.w3.org/Graphics/SVG/1.1/DTD/svg11.dtd">
<svg version="1.1" id="Layer_1" xmlns="http://www.w3.org/2000/svg" xmlns:xlink="http://www.w3.org/1999/xlink" x="0px" y="0px"
	 viewBox="-456 258.3 45.7 45.7" style="enable-background:new -456 258.3 45.7 45.7;" xml:space="preserve">
<style type="text/css">
	.st0{fill:#FFFFFF;}
</style>
<path class="st0" d="M-431.6,267.3h-3.1l-10.3,25.4h3.7l2.6-6.6h10.8l2.6,6.6h4L-431.6,267.3L-431.6,267.3z M-437.6,283.1l4.4-11.4
	l4.4,11.4H-437.6L-437.6,283.1z"/>
<path class="st0" d="M-412,281.2c0-11.9-9.3-21.2-21.1-21.2c-11.8,0-21.2,9.3-21.2,21.2s9.3,21.1,21.2,21.1S-412,293-412,281.2
	L-412,281.2z M-414.6,281.2c0,10.2-8.4,18.6-18.6,18.6c-10.1-0.1-18.5-8.5-18.5-18.6s8.4-18.6,18.6-18.6
	C-423,262.6-414.6,271-414.6,281.2L-414.6,281.2z"/>
</svg>
