<?xml version="1.0" encoding="utf-8"?>
<!-- Generator: Adobe Illustrator 19.1.0, SVG Export Plug-In . SVG Version: 6.00 Build 0)  -->
<svg version="1.1" id="Layer_1" xmlns="http://www.w3.org/2000/svg" xmlns:xlink="http://www.w3.org/1999/xlink" x="0px" y="0px"
	 viewBox="0 0 24 24" style="enable-background:new 0 0 24 24;" xml:space="preserve">
<path d="M12,2.675904c-5.246338,0-9.5,4.253662-9.5,9.5c0,4.197998,2.72175,7.758179,6.497035,9.01409
	c0.474889,0.086985,0.648264-0.206421,0.648264-0.456909c0-0.226143-0.008702-0.975271-0.013341-1.768484
	C6.990234,19.538626,6.43185,17.84436,6.43185,17.84436c-0.432547-1.097046-1.054723-1.389282-1.054723-1.389282
	c-0.863368-0.589111,0.065498-0.577515,0.065498-0.577515c0.953823,0.066092,1.455986,0.97876,1.455986,0.97876
	c0.847726,1.451904,2.224244,1.032104,2.764649,0.788574c0.086353-0.612305,0.332203-1.032104,0.603027-1.268677
	C8.157435,16.136179,5.939,15.320923,5.939,11.680717c0-1.037912,0.370518-1.884452,0.977015-2.549525
	C6.819179,8.88998,6.492153,7.923392,7.009939,6.61588c0,0,0.796701-0.255127,2.612722,0.974121
	c0.757255-0.211635,1.569615-0.316005,2.377319-0.319493c0.80713,0.003488,1.620047,0.109009,2.378489,0.320643
	c1.81257-1.230398,2.610421-0.974121,2.610421-0.974121c0.519531,1.308681,0.192505,2.2741,0.095093,2.514161
	c0.608816,0.665073,0.97644,1.511631,0.97644,2.549525c0,3.649484-2.221924,4.453124-4.338308,4.688546
	c0.342111,0.294556,0.644775,0.87207,0.644775,1.758057c0,1.269846-0.012766,2.293823-0.012766,2.606934
	c0,0.252808,0.172782,0.548513,0.654053,0.45574C18.780588,19.931763,21.5,16.371582,21.5,12.175903
	C21.5,6.929566,17.246338,2.675904,12,2.675904z"/>
</svg>
