<?xml version="1.0" encoding="utf-8"?>
<!-- Generator: Adobe Illustrator 19.1.0, SVG Export Plug-In . SVG Version: 6.00 Build 0)  -->
<svg version="1.1" id="Layer_1" xmlns="http://www.w3.org/2000/svg" xmlns:xlink="http://www.w3.org/1999/xlink" x="0px" y="0px"
	 viewBox="0 0 24 24" style="enable-background:new 0 0 24 24;" xml:space="preserve">
<path d="M19.255823,10.502824h-1.559658c0.135622,0.406867,0.203432,0.881545,0.203432,1.356224
	c0,2.983694-2.441203,5.424897-5.424897,5.424897s-5.424898-2.441203-5.424898-5.424897
	c0-0.474679,0.067811-0.949357,0.203433-1.356224H5.693578v7.459235c0,0.406866,0.271245,0.678112,0.678112,0.678112h12.206019
	c0.406868,0,0.678114-0.271246,0.678114-0.678112V10.502824z M19.255823,5.756038c0-0.406868-0.271246-0.678112-0.678114-0.678112
	h-2.034336c-0.406868,0-0.678112,0.271245-0.678112,0.678112v2.034337c0,0.406867,0.271244,0.678112,0.678112,0.678112h2.034336
	c0.406868,0,0.678114-0.271245,0.678114-0.678112V5.756038z M12.4747,8.468487c-1.898714,0-3.390561,1.491848-3.390561,3.390561
	s1.491847,3.390561,3.390561,3.390561s3.390561-1.491847,3.390561-3.390561S14.373414,8.468487,12.4747,8.468487
	 M19.255823,20.674507H5.693578c-1.152791,0-2.034337-0.881546-2.034337-2.034336V5.077926
	c0-1.152791,0.881546-2.034337,2.034337-2.034337h13.562245c1.15279,0,2.034336,0.881546,2.034336,2.034337v13.562245
	C21.290159,19.792961,20.408613,20.674507,19.255823,20.674507"/>
</svg>
