<?xml version="1.0" encoding="utf-8"?>
<!-- Generator: Adobe Illustrator 19.1.0, SVG Export Plug-In . SVG Version: 6.00 Build 0)  -->
<svg version="1.1" id="Layer_1" xmlns="http://www.w3.org/2000/svg" xmlns:xlink="http://www.w3.org/1999/xlink" x="0px" y="0px"
	 viewBox="0 0 24 24" style="enable-background:new 0 0 24 24;" xml:space="preserve" class="social-icon">
<g id="g10" transform="matrix(1.3333333,0,0,-1.3333333,0,126.66667)">
	<g id="g12" transform="scale(0.1)">
		<path id="path14" d="M166.979996,907.168213h-6.089111c-2.260651,0-5.457886-3.261108-5.457886-5.348938v-75.672424
			c0-2.090393,3.197235-4.939575,5.457886-4.939575h6.089111V803.2453h-55.168983v17.961975h11.546997v79.545959h-0.565804
			L95.82766,803.2453H74.95134l-26.616726,97.507935h-0.673573v-79.545959h11.546993V803.2453H13.020055v17.961975h5.914332
			c2.435684,0,5.632662,2.849182,5.632662,4.939575v75.672424c0,2.08783-3.196978,5.348938-5.632662,5.348938h-5.914332v17.962036
			H70.77607l18.962349-70.565002h0.521667l19.137733,70.565002h57.582176V907.168213"/>
	</g>
</g>
</svg>
