<?xml version="1.0" encoding="utf-8"?>
<!-- Generator: Adobe Illustrator 19.1.0, SVG Export Plug-In . SVG Version: 6.00 Build 0)  -->
<svg version="1.1" id="Layer_1" xmlns="http://www.w3.org/2000/svg" xmlns:xlink="http://www.w3.org/1999/xlink" x="0px" y="0px"
	 viewBox="0 0 24 24" style="enable-background:new 0 0 24 24;" xml:space="preserve" class="social-icon">
<path d="M21.500202,11.34273c0-1.153058-0.893827-2.087798-1.99642-2.087798c-0.698593,0-1.312998,0.375515-1.669735,0.943782
	c-1.385969-0.966459-3.25451-1.588227-5.327679-1.668936c-0.015877-1.482683,0.150045-2.583934,0.934364-2.945143l0.038683-0.017789
	l0.034919-0.024283c0.704523-0.490029,1.672995-0.22697,2.729114,0.186711c-0.010494,0.091261-0.016529,0.183963-0.016529,0.278195
	c0,1.256454,0.960447,2.278692,2.140947,2.278692c1.180546,0,2.140993-1.022237,2.140993-2.278692
	s-0.960447-2.278644-2.140993-2.278644c-0.769131,0-1.444595,0.434105-1.822134,1.084015
	c-1.241854-0.482018-2.482408-0.800331-3.546845-0.085355c-1.279602,0.618151-1.481442,2.176948-1.460395,3.804788
	c-2.076787,0.089254-3.946097,0.720717-5.325937,1.69783C5.864388,9.618558,5.226207,9.20863,4.496219,9.20863
	c-1.102592,0-1.99642,0.934735-1.99642,2.087799c0,0.951335,0.608674,1.753484,1.440812,2.005238
	c-0.085638,0.336285-0.132809,0.681999-0.132809,1.03569c0,3.212727,3.688456,5.817154,8.238398,5.817154
	s8.238397-2.604427,8.238397-5.817154c0-0.348615-0.0459-0.689465-0.12915-1.021208
	C20.937929,13.033583,21.500202,12.257064,21.500202,11.34273z M7.456427,13.167045c0-0.665358,0.526536-1.204735,1.176053-1.204735
	c0.649515,0,1.176052,0.539377,1.176052,1.204735S9.281995,14.37178,8.63248,14.37178
	C7.982963,14.37178,7.456427,13.832402,7.456427,13.167045z M15.263037,16.858324
	c-1.045108,0.580391-2.207019,1.128075-3.542299,1.128075c-1.034142,0-2.172241-0.328432-3.440885-1.224594
	c-0.21737-0.153557-0.269135-0.454271-0.11558-0.67164c0.15351-0.217323,0.454224-0.269183,0.67164-0.11558
	c2.452436,1.732372,4.218222,1.007978,5.959159,0.041178c0.232711-0.129321,0.526083-0.045366,0.655263,0.187298
	C15.579562,16.435772,15.495701,16.729097,15.263037,16.858324z M14.753683,14.268519
	c-0.649516,0-1.176053-0.539378-1.176053-1.204736s0.526537-1.204736,1.176053-1.204736s1.176052,0.539378,1.176052,1.204736
	S15.403199,14.268519,14.753683,14.268519z"/>
</svg>
