<?xml version="1.0" encoding="utf-8"?>
<!-- Generator: Adobe Illustrator 19.1.0, SVG Export Plug-In . SVG Version: 6.00 Build 0)  -->
<svg version="1.1" id="Layer_1" xmlns="http://www.w3.org/2000/svg" xmlns:xlink="http://www.w3.org/1999/xlink" x="0px" y="0px"
	 viewBox="0 0 24 24" style="enable-background:new 0 0 24 24;" xml:space="preserve" class="social-icon">
<path d="M12.806825,2.675906v4.285488h4.284753v3.307951h-4.284753v4.751539c0,1.075847-0.013974,1.695121,0.100188,1.999938
	c0.112938,0.303263,0.396588,0.617723,0.705491,0.799631c0.410562,0.245815,0.878657,0.368723,1.40657,0.368723
	c0.938063,0,1.871799-0.304817,2.799485-0.914532v2.923214c-0.790804,0.371908-1.509045,0.633657-2.150712,0.784513
	c-0.642402,0.149221-1.336697,0.225058-2.082476,0.225058c-0.847193,0-1.347157-0.106972-1.997976-0.320017
	c-0.65082-0.21468-1.20619-0.52113-1.665539-0.914612c-0.460412-0.396589-0.778464-0.81802-0.956453-1.263313
	c-0.177494-0.44611-0.266081-1.093334-0.266081-1.940855v-6.499288H6.181442V7.645392
	C6.909242,7.409139,7.753575,7.07,8.271518,6.629447C8.79183,6.186523,9.208031,5.657385,9.522081,5.037374
	c0.314786-0.61854,0.531099-1.406976,0.649185-2.361468H12.806825z"/>
</svg>
