<?xml version="1.0" encoding="utf-8"?>
<!-- Generator: Adobe Illustrator 19.1.0, SVG Export Plug-In . SVG Version: 6.00 Build 0)  -->
<svg version="1.1" id="Layer_1" xmlns="http://www.w3.org/2000/svg" xmlns:xlink="http://www.w3.org/1999/xlink" x="0px" y="0px"
	 viewBox="0 0 24 24" style="enable-background:new 0 0 24 24;" xml:space="preserve" class="social-icon">
<path d="M22.021578,5.726143c-0.737148,0.32688-1.530106,0.548534-2.361347,0.647079
	c0.849844-0.508886,1.501448-1.314126,1.80793-2.274726c-0.794682,0.471035-1.67498,0.813644-2.611732,0.997087
	c-0.749146-0.79856-1.818058-1.297966-3.00103-1.297966c-2.270847,0-4.111745,1.841544-4.111745,4.111745
	c0,0.322642,0.035769,0.636161,0.106231,0.936753c-3.418051-0.171879-6.44781-1.807929-8.476029-4.296983
	C3.02004,5.158,2.817276,5.864336,2.817276,6.617646c0,1.425673,0.725657,2.684709,1.828974,3.422288
	c-0.673368-0.020685-1.307806-0.206571-1.86223-0.513483c0,0.016879,0,0.03541,0,0.050853
	c0,1.993814,1.416838,3.654788,3.298388,4.032162c-0.344693,0.096103-0.708419,0.144873-1.083637,0.144873
	c-0.264822,0-0.522605-0.024565-0.773349-0.073334c0.522892,1.633608,2.041148,2.8229,3.841321,2.854791
	c-1.407716,1.10339-3.180954,1.760237-5.107755,1.760237c-0.332123,0-0.659362-0.018244-0.980567-0.056814
	c1.819852,1.165447,3.981596,1.8465,6.304014,1.8465c7.563841,0,11.699073-6.265157,11.699073-11.699072
	c0-0.179564-0.00388-0.357046-0.011206-0.531655C20.774107,7.274566,21.47168,6.550345,22.021578,5.726143z"/>
</svg>
