<?xml version="1.0" encoding="utf-8"?>
<!-- Generator: Adobe Illustrator 19.1.0, SVG Export Plug-In . SVG Version: 6.00 Build 0)  -->
<svg version="1.1" id="Layer_1" xmlns="http://www.w3.org/2000/svg" xmlns:xlink="http://www.w3.org/1999/xlink" x="0px" y="0px"
	 viewBox="0 0 24 24" style="enable-background:new 0 0 24 24;" xml:space="preserve">
<path d="M11.585175,2.610985c-5.153222,0-9.330716,4.177494-9.330716,9.330647c0,5.153222,4.177494,9.330716,9.330716,9.330716
	c5.153154,0,9.330647-4.177494,9.330647-9.330716C20.915821,6.788479,16.738329,2.610985,11.585175,2.610985z M7.504134,13.917454
	H6.899088L6.33973,12.170231c-0.129035-0.408097-0.23461-0.771125-0.325366-1.202065H5.999546
	c-0.091374,0.43835-0.204357,0.816195-0.333392,1.210092l-0.589611,1.739197H4.471498l-1.104517-3.660525h0.680985
	l0.484036,1.860824c0.105574,0.408097,0.204357,0.786559,0.27227,1.164404h0.022843
	c0.083348-0.370436,0.204358-0.763716,0.325366-1.156995l0.597019-1.868233h0.559976l0.566767,1.829954
	c0.136444,0.438967,0.242018,0.824838,0.325366,1.195273h0.022843c0.060504-0.370436,0.15867-0.756307,0.279679-1.187247
	l0.521698-1.83798h0.658141L7.504134,13.917454z M13.155752,13.917454h-0.605045l-0.559359-1.747223
	c-0.129035-0.408097-0.23461-0.771125-0.325366-1.202065h-0.014818c-0.091373,0.43835-0.204357,0.816195-0.333392,1.210092
	l-0.58961,1.739197h-0.605045L9.0186,10.256928h0.680984l0.484036,1.860824c0.105575,0.408097,0.204357,0.786559,0.27227,1.164404
	h0.022844c0.083347-0.370436,0.204357-0.763716,0.325366-1.156995l0.597019-1.868233h0.559976l0.566767,1.829954
	c0.136444,0.438967,0.242019,0.824838,0.325367,1.195273h0.022843c0.060505-0.370436,0.15867-0.756307,0.279679-1.187247
	l0.521697-1.83798h0.658141L13.155752,13.917454z M18.807371,13.917454h-0.605045l-0.559359-1.747223
	c-0.129036-0.408097-0.23461-0.771125-0.325367-1.202065h-0.014818c-0.091373,0.43835-0.204357,0.816195-0.333391,1.210092
	l-0.589611,1.739197h-0.605045l-1.104517-3.660525h0.680985l0.484036,1.860824
	c0.105574,0.408097,0.204357,0.786559,0.27227,1.164404h0.022842c0.083349-0.370436,0.204359-0.763716,0.325367-1.156995
	l0.597019-1.868233h0.559977l0.566767,1.829954c0.136444,0.438967,0.242018,0.824838,0.325367,1.195273h0.022842
	c0.060505-0.370436,0.15867-0.756307,0.27968-1.187247l0.521696-1.83798h0.658142L18.807371,13.917454z"/>
</svg>
