<?xml version="1.0" encoding="utf-8"?>
<!-- Generator: Adobe Illustrator 19.1.0, SVG Export Plug-In . SVG Version: 6.00 Build 0)  -->
<!DOCTYPE svg PUBLIC "-//W3C//DTD SVG 1.1//EN" "http://www.w3.org/Graphics/SVG/1.1/DTD/svg11.dtd">
<svg version="1.1" id="Layer_1" xmlns="http://www.w3.org/2000/svg" xmlns:xlink="http://www.w3.org/1999/xlink" x="0px" y="0px"
	 viewBox="0 0 813.6 225" style="enable-background:new 0 0 813.6 225;" xml:space="preserve">
<style type="text/css">
	.st0{fill:#6ECCDA;}
</style>
<g id="XMLID_1_">
	<polygon id="XMLID_41_" class="st0" points="406.4,194.2 406.4,198 396.1,225.1 394.7,225.1 	"/>
	<polygon id="XMLID_40_" class="st0" points="406.4,162 406.4,165.8 383.9,225.1 382.5,225.1 	"/>
	<polygon id="XMLID_39_" class="st0" points="406.4,129.7 406.4,133.5 371.7,225.1 370.2,225.1 	"/>
	<polygon id="XMLID_38_" class="st0" points="406.4,97.4 406.4,101.2 359.4,225.1 358,225.1 	"/>
	<polygon id="XMLID_37_" class="st0" points="406.4,65.2 406.4,69 347.2,225.1 345.7,225.1 	"/>
	<polygon id="XMLID_36_" class="st0" points="406.4,32.9 406.4,36.7 334.9,225.1 333.5,225.1 	"/>
	<polygon id="XMLID_35_" class="st0" points="406.2,1.2 406.4,1.2 406.4,4.4 322.7,225.1 321.3,225.1 	"/>
	<polygon id="XMLID_34_" class="st0" points="395.4,1.2 310.5,225.1 309,225.1 394,1.2 	"/>
	<polygon id="XMLID_33_" class="st0" points="383.2,1.2 298.2,225.1 296.8,225.1 381.7,1.2 	"/>
	<polygon id="XMLID_32_" class="st0" points="370.9,1.2 286,225.1 284.5,225.1 369.5,1.2 	"/>
	<polygon id="XMLID_31_" class="st0" points="358.7,1.2 273.7,225.1 272.3,225.1 357.2,1.2 	"/>
	<polygon id="XMLID_30_" class="st0" points="346.4,1.2 261.5,225.1 260.1,225.1 345,1.2 	"/>
	<polygon id="XMLID_29_" class="st0" points="334.2,1.2 249.3,225.1 247.8,225.1 332.8,1.2 	"/>
	<polygon id="XMLID_28_" class="st0" points="322,1.2 237,225.1 235.6,225.1 320.5,1.2 	"/>
	<polygon id="XMLID_27_" class="st0" points="309.7,1.2 224.8,225.1 223.3,225.1 308.3,1.2 	"/>
	<polygon id="XMLID_26_" class="st0" points="297.5,1.2 212.5,225.1 211.1,225.1 296,1.2 	"/>
	<polygon id="XMLID_25_" class="st0" points="285.2,1.2 200.3,225.1 198.9,225.1 283.8,1.2 	"/>
	<polygon id="XMLID_24_" class="st0" points="273,1.2 188.1,225.1 186.6,225.1 271.6,1.2 	"/>
	<polygon id="XMLID_23_" class="st0" points="260.8,1.2 175.8,225.1 174.4,225.1 259.3,1.2 	"/>
	<polygon id="XMLID_22_" class="st0" points="248.5,1.2 163.6,225.1 162.1,225.1 247.1,1.2 	"/>
	<polygon id="XMLID_21_" class="st0" points="236.3,1.2 151.3,225.1 149.9,225.1 234.8,1.2 	"/>
	<polygon id="XMLID_20_" class="st0" points="224,1.2 139.1,225.1 137.7,225.1 222.6,1.2 	"/>
	<polygon id="XMLID_19_" class="st0" points="211.8,1.2 126.9,225.1 125.4,225.1 210.4,1.2 	"/>
	<polygon id="XMLID_18_" class="st0" points="199.6,1.2 114.6,225.1 113.2,225.1 198.1,1.2 	"/>
	<polygon id="XMLID_17_" class="st0" points="187.3,1.2 102.4,225.1 100.9,225.1 185.9,1.2 	"/>
	<polygon id="XMLID_16_" class="st0" points="175.1,1.2 90.1,225.1 88.7,225.1 173.6,1.2 	"/>
	<polygon id="XMLID_15_" class="st0" points="162.8,1.2 77.9,225.1 76.5,225.1 161.4,1.2 	"/>
	<polygon id="XMLID_14_" class="st0" points="150.6,1.2 65.7,225.1 64.2,225.1 149.2,1.2 	"/>
	<polygon id="XMLID_13_" class="st0" points="138.4,1.2 53.4,225.1 52,225.1 136.9,1.2 	"/>
	<polygon id="XMLID_12_" class="st0" points="126.1,1.2 41.2,225.1 39.7,225.1 124.7,1.2 	"/>
	<polygon id="XMLID_11_" class="st0" points="113.9,1.2 28.9,225.1 27.5,225.1 112.4,1.2 	"/>
	<polygon id="XMLID_10_" class="st0" points="101.6,1.2 16.7,225.1 15.3,225.1 100.2,1.2 	"/>
	<polygon id="XMLID_9_" class="st0" points="89.4,1.2 4.5,225.1 3,225.1 88,1.2 	"/>
	<polygon id="XMLID_8_" class="st0" points="75.7,1.2 77.2,1.2 -0.4,205.6 -0.4,201.8 	"/>
	<polygon id="XMLID_7_" class="st0" points="63.5,1.2 64.9,1.2 -0.4,173.4 -0.4,169.6 	"/>
	<polygon id="XMLID_6_" class="st0" points="51.2,1.2 52.7,1.2 -0.4,141.1 -0.4,137.3 	"/>
	<polygon id="XMLID_5_" class="st0" points="39,1.2 40.4,1.2 -0.4,108.8 -0.4,105 	"/>
	<polygon id="XMLID_4_" class="st0" points="26.8,1.2 28.2,1.2 -0.4,76.6 -0.4,72.8 	"/>
	<polygon id="XMLID_3_" class="st0" points="14.5,1.2 16,1.2 -0.4,44.3 -0.4,40.5 	"/>
	<polygon id="XMLID_2_" class="st0" points="2.3,1.2 3.7,1.2 -0.4,12 -0.4,8.2 	"/>
</g>
<g id="XMLID_83_">
	<polygon id="XMLID_123_" class="st0" points="406.4,194.2 406.4,198 416.7,225.1 418.1,225.1 	"/>
	<polygon id="XMLID_122_" class="st0" points="406.4,162 406.4,165.8 428.9,225.1 430.3,225.1 	"/>
	<polygon id="XMLID_121_" class="st0" points="406.4,129.7 406.4,133.5 441.1,225.1 442.6,225.1 	"/>
	<polygon id="XMLID_120_" class="st0" points="406.4,97.4 406.4,101.2 453.4,225.1 454.8,225.1 	"/>
	<polygon id="XMLID_119_" class="st0" points="406.4,65.1 406.4,68.9 465.6,225.1 467.1,225.1 	"/>
	<polygon id="XMLID_118_" class="st0" points="406.4,32.9 406.4,36.7 477.9,225.1 479.3,225.1 	"/>
	<polygon id="XMLID_117_" class="st0" points="406.6,1.1 406.4,1.1 406.4,4.4 490.1,225.1 491.5,225.1 	"/>
	<polygon id="XMLID_116_" class="st0" points="417.4,1.1 502.3,225.1 503.8,225.1 418.8,1.1 	"/>
	<polygon id="XMLID_115_" class="st0" points="429.6,1.1 514.6,225.1 516,225.1 431.1,1.1 	"/>
	<polygon id="XMLID_114_" class="st0" points="441.9,1.1 526.8,225.1 528.3,225.1 443.3,1.1 	"/>
	<polygon id="XMLID_113_" class="st0" points="454.1,1.1 539.1,225.1 540.5,225.1 455.6,1.1 	"/>
	<polygon id="XMLID_112_" class="st0" points="466.4,1.1 551.3,225.1 552.7,225.1 467.8,1.1 	"/>
	<polygon id="XMLID_111_" class="st0" points="478.6,1.1 563.5,225.1 565,225.1 480,1.1 	"/>
	<polygon id="XMLID_110_" class="st0" points="490.8,1.1 575.8,225.1 577.2,225.1 492.3,1.1 	"/>
	<polygon id="XMLID_109_" class="st0" points="503.1,1.1 588,225.1 589.5,225.1 504.5,1.1 	"/>
	<polygon id="XMLID_108_" class="st0" points="515.3,1.1 600.3,225.1 601.7,225.1 516.8,1.1 	"/>
	<polygon id="XMLID_107_" class="st0" points="527.6,1.1 612.5,225.1 613.9,225.1 529,1.1 	"/>
	<polygon id="XMLID_106_" class="st0" points="539.8,1.1 624.7,225.1 626.2,225.1 541.2,1.1 	"/>
	<polygon id="XMLID_105_" class="st0" points="552,1.1 637,225.1 638.4,225.1 553.5,1.1 	"/>
	<polygon id="XMLID_104_" class="st0" points="564.3,1.1 649.2,225.1 650.7,225.1 565.7,1.1 	"/>
	<polygon id="XMLID_103_" class="st0" points="576.5,1.1 661.5,225.1 662.9,225.1 578,1.1 	"/>
	<polygon id="XMLID_102_" class="st0" points="588.8,1.1 673.7,225.1 675.1,225.1 590.2,1.1 	"/>
	<polygon id="XMLID_101_" class="st0" points="601,1.1 685.9,225.1 687.4,225.1 602.4,1.1 	"/>
	<polygon id="XMLID_100_" class="st0" points="613.2,1.1 698.2,225.1 699.6,225.1 614.7,1.1 	"/>
	<polygon id="XMLID_99_" class="st0" points="625.5,1.1 710.4,225.1 711.9,225.1 626.9,1.1 	"/>
	<polygon id="XMLID_98_" class="st0" points="637.7,1.1 722.7,225.1 724.1,225.1 639.2,1.1 	"/>
	<polygon id="XMLID_97_" class="st0" points="650,1.1 734.9,225.1 736.3,225.1 651.4,1.1 	"/>
	<polygon id="XMLID_96_" class="st0" points="662.2,1.1 747.1,225.1 748.6,225.1 663.6,1.1 	"/>
	<polygon id="XMLID_95_" class="st0" points="674.4,1.1 759.4,225.1 760.8,225.1 675.9,1.1 	"/>
	<polygon id="XMLID_94_" class="st0" points="686.7,1.1 771.6,225.1 773.1,225.1 688.1,1.1 	"/>
	<polygon id="XMLID_93_" class="st0" points="698.9,1.1 783.9,225.1 785.3,225.1 700.4,1.1 	"/>
	<polygon id="XMLID_92_" class="st0" points="711.2,1.1 796.1,225.1 797.5,225.1 712.6,1.1 	"/>
	<polygon id="XMLID_91_" class="st0" points="723.4,1.1 808.3,225.1 809.8,225.1 724.8,1.1 	"/>
	<polygon id="XMLID_90_" class="st0" points="737.1,1.1 735.6,1.1 813.2,205.6 813.2,201.8 	"/>
	<polygon id="XMLID_89_" class="st0" points="749.3,1.1 747.9,1.1 813.2,173.3 813.2,169.5 	"/>
	<polygon id="XMLID_88_" class="st0" points="761.6,1.1 760.1,1.1 813.2,141.1 813.2,137.3 	"/>
	<polygon id="XMLID_87_" class="st0" points="773.8,1.1 772.4,1.1 813.2,108.8 813.2,105 	"/>
	<polygon id="XMLID_86_" class="st0" points="786,1.1 784.6,1.1 813.2,76.5 813.2,72.7 	"/>
	<polygon id="XMLID_85_" class="st0" points="798.3,1.1 796.8,1.1 813.2,44.3 813.2,40.5 	"/>
	<polygon id="XMLID_84_" class="st0" points="810.5,1.1 809.1,1.1 813.2,12 813.2,8.2 	"/>
</g>
</svg>
