<?xml version="1.0" encoding="utf-8"?>
<!-- Generator: Adobe Illustrator 19.1.0, SVG Export Plug-In . SVG Version: 6.00 Build 0)  -->
<!DOCTYPE svg PUBLIC "-//W3C//DTD SVG 1.1//EN" "http://www.w3.org/Graphics/SVG/1.1/DTD/svg11.dtd">
<svg version="1.1" id="Layer_1" xmlns="http://www.w3.org/2000/svg" xmlns:xlink="http://www.w3.org/1999/xlink" x="0px" y="0px"
	 viewBox="-72 168 813.6 225" style="enable-background:new -72 168 813.6 225;" xml:space="preserve">
<style type="text/css">
	.st0{fill:rgba(110,204,218,0.35);}
</style>
<g id="XMLID_1_">
	<polygon id="XMLID_41_" class="st0" points="334.4,362.2 334.4,366 324.1,393.1 322.7,393.1 	"/>
	<polygon id="XMLID_40_" class="st0" points="334.4,330 334.4,333.8 311.9,393.1 310.5,393.1 	"/>
	<polygon id="XMLID_39_" class="st0" points="334.4,297.7 334.4,301.5 299.7,393.1 298.2,393.1 	"/>
	<polygon id="XMLID_38_" class="st0" points="334.4,265.4 334.4,269.2 287.4,393.1 286,393.1 	"/>
	<polygon id="XMLID_37_" class="st0" points="334.4,233.2 334.4,237 275.2,393.1 273.7,393.1 	"/>
	<polygon id="XMLID_36_" class="st0" points="334.4,200.9 334.4,204.7 262.9,393.1 261.5,393.1 	"/>
	<polygon id="XMLID_35_" class="st0" points="334.2,169.2 334.4,169.2 334.4,172.4 250.7,393.1 249.3,393.1 	"/>
	<polygon id="XMLID_34_" class="st0" points="323.4,169.2 238.5,393.1 237,393.1 322,169.2 	"/>
	<polygon id="XMLID_33_" class="st0" points="311.2,169.2 226.2,393.1 224.8,393.1 309.7,169.2 	"/>
	<polygon id="XMLID_32_" class="st0" points="298.9,169.2 214,393.1 212.5,393.1 297.5,169.2 	"/>
	<polygon id="XMLID_31_" class="st0" points="286.7,169.2 201.7,393.1 200.3,393.1 285.2,169.2 	"/>
	<polygon id="XMLID_30_" class="st0" points="274.4,169.2 189.5,393.1 188.1,393.1 273,169.2 	"/>
	<polygon id="XMLID_29_" class="st0" points="262.2,169.2 177.3,393.1 175.8,393.1 260.8,169.2 	"/>
	<polygon id="XMLID_28_" class="st0" points="250,169.2 165,393.1 163.6,393.1 248.5,169.2 	"/>
	<polygon id="XMLID_27_" class="st0" points="237.7,169.2 152.8,393.1 151.3,393.1 236.3,169.2 	"/>
	<polygon id="XMLID_26_" class="st0" points="225.5,169.2 140.5,393.1 139.1,393.1 224,169.2 	"/>
	<polygon id="XMLID_25_" class="st0" points="213.2,169.2 128.3,393.1 126.9,393.1 211.8,169.2 	"/>
	<polygon id="XMLID_24_" class="st0" points="201,169.2 116.1,393.1 114.6,393.1 199.6,169.2 	"/>
	<polygon id="XMLID_23_" class="st0" points="188.8,169.2 103.8,393.1 102.4,393.1 187.3,169.2 	"/>
	<polygon id="XMLID_22_" class="st0" points="176.5,169.2 91.6,393.1 90.1,393.1 175.1,169.2 	"/>
	<polygon id="XMLID_21_" class="st0" points="164.3,169.2 79.3,393.1 77.9,393.1 162.8,169.2 	"/>
	<polygon id="XMLID_20_" class="st0" points="152,169.2 67.1,393.1 65.7,393.1 150.6,169.2 	"/>
	<polygon id="XMLID_19_" class="st0" points="139.8,169.2 54.9,393.1 53.4,393.1 138.4,169.2 	"/>
	<polygon id="XMLID_18_" class="st0" points="127.6,169.2 42.6,393.1 41.2,393.1 126.1,169.2 	"/>
	<polygon id="XMLID_17_" class="st0" points="115.3,169.2 30.4,393.1 28.9,393.1 113.9,169.2 	"/>
	<polygon id="XMLID_16_" class="st0" points="103.1,169.2 18.1,393.1 16.7,393.1 101.6,169.2 	"/>
	<polygon id="XMLID_15_" class="st0" points="90.8,169.2 5.9,393.1 4.5,393.1 89.4,169.2 	"/>
	<polygon id="XMLID_14_" class="st0" points="78.6,169.2 -6.3,393.1 -7.8,393.1 77.2,169.2 	"/>
	<polygon id="XMLID_13_" class="st0" points="66.4,169.2 -18.6,393.1 -20,393.1 64.9,169.2 	"/>
	<polygon id="XMLID_12_" class="st0" points="54.1,169.2 -30.8,393.1 -32.3,393.1 52.7,169.2 	"/>
	<polygon id="XMLID_11_" class="st0" points="41.9,169.2 -43.1,393.1 -44.5,393.1 40.4,169.2 	"/>
	<polygon id="XMLID_10_" class="st0" points="29.6,169.2 -55.3,393.1 -56.7,393.1 28.2,169.2 	"/>
	<polygon id="XMLID_9_" class="st0" points="17.4,169.2 -67.5,393.1 -69,393.1 16,169.2 	"/>
	<polygon id="XMLID_8_" class="st0" points="3.7,169.2 5.2,169.2 -72.4,373.6 -72.4,369.8 	"/>
	<polygon id="XMLID_7_" class="st0" points="-8.5,169.2 -7.1,169.2 -72.4,341.4 -72.4,337.6 	"/>
	<polygon id="XMLID_6_" class="st0" points="-20.8,169.2 -19.3,169.2 -72.4,309.1 -72.4,305.3 	"/>
	<polygon id="XMLID_5_" class="st0" points="-33,169.2 -31.6,169.2 -72.4,276.8 -72.4,273 	"/>
	<polygon id="XMLID_4_" class="st0" points="-45.2,169.2 -43.8,169.2 -72.4,244.6 -72.4,240.8 	"/>
	<polygon id="XMLID_3_" class="st0" points="-57.5,169.2 -56,169.2 -72.4,212.3 -72.4,208.5 	"/>
	<polygon id="XMLID_2_" class="st0" points="-69.7,169.2 -68.3,169.2 -72.4,180 -72.4,176.2 	"/>
</g>
<g id="XMLID_83_">
	<polygon id="XMLID_123_" class="st0" points="334.4,362.2 334.4,366 344.7,393.1 346.1,393.1 	"/>
	<polygon id="XMLID_122_" class="st0" points="334.4,330 334.4,333.8 356.9,393.1 358.3,393.1 	"/>
	<polygon id="XMLID_121_" class="st0" points="334.4,297.7 334.4,301.5 369.1,393.1 370.6,393.1 	"/>
	<polygon id="XMLID_120_" class="st0" points="334.4,265.4 334.4,269.2 381.4,393.1 382.8,393.1 	"/>
	<polygon id="XMLID_119_" class="st0" points="334.4,233.1 334.4,236.9 393.6,393.1 395.1,393.1 	"/>
	<polygon id="XMLID_118_" class="st0" points="334.4,200.9 334.4,204.7 405.9,393.1 407.3,393.1 	"/>
	<polygon id="XMLID_117_" class="st0" points="334.6,169.1 334.4,169.1 334.4,172.4 418.1,393.1 419.5,393.1 	"/>
	<polygon id="XMLID_116_" class="st0" points="345.4,169.1 430.3,393.1 431.8,393.1 346.8,169.1 	"/>
	<polygon id="XMLID_115_" class="st0" points="357.6,169.1 442.6,393.1 444,393.1 359.1,169.1 	"/>
	<polygon id="XMLID_114_" class="st0" points="369.9,169.1 454.8,393.1 456.3,393.1 371.3,169.1 	"/>
	<polygon id="XMLID_113_" class="st0" points="382.1,169.1 467.1,393.1 468.5,393.1 383.6,169.1 	"/>
	<polygon id="XMLID_112_" class="st0" points="394.4,169.1 479.3,393.1 480.7,393.1 395.8,169.1 	"/>
	<polygon id="XMLID_111_" class="st0" points="406.6,169.1 491.5,393.1 493,393.1 408,169.1 	"/>
	<polygon id="XMLID_110_" class="st0" points="418.8,169.1 503.8,393.1 505.2,393.1 420.3,169.1 	"/>
	<polygon id="XMLID_109_" class="st0" points="431.1,169.1 516,393.1 517.5,393.1 432.5,169.1 	"/>
	<polygon id="XMLID_108_" class="st0" points="443.3,169.1 528.3,393.1 529.7,393.1 444.8,169.1 	"/>
	<polygon id="XMLID_107_" class="st0" points="455.6,169.1 540.5,393.1 541.9,393.1 457,169.1 	"/>
	<polygon id="XMLID_106_" class="st0" points="467.8,169.1 552.7,393.1 554.2,393.1 469.2,169.1 	"/>
	<polygon id="XMLID_105_" class="st0" points="480,169.1 565,393.1 566.4,393.1 481.5,169.1 	"/>
	<polygon id="XMLID_104_" class="st0" points="492.3,169.1 577.2,393.1 578.7,393.1 493.7,169.1 	"/>
	<polygon id="XMLID_103_" class="st0" points="504.5,169.1 589.5,393.1 590.9,393.1 506,169.1 	"/>
	<polygon id="XMLID_102_" class="st0" points="516.8,169.1 601.7,393.1 603.1,393.1 518.2,169.1 	"/>
	<polygon id="XMLID_101_" class="st0" points="529,169.1 613.9,393.1 615.4,393.1 530.4,169.1 	"/>
	<polygon id="XMLID_100_" class="st0" points="541.2,169.1 626.2,393.1 627.6,393.1 542.7,169.1 	"/>
	<polygon id="XMLID_99_" class="st0" points="553.5,169.1 638.4,393.1 639.9,393.1 554.9,169.1 	"/>
	<polygon id="XMLID_98_" class="st0" points="565.7,169.1 650.7,393.1 652.1,393.1 567.2,169.1 	"/>
	<polygon id="XMLID_97_" class="st0" points="578,169.1 662.9,393.1 664.3,393.1 579.4,169.1 	"/>
	<polygon id="XMLID_96_" class="st0" points="590.2,169.1 675.1,393.1 676.6,393.1 591.6,169.1 	"/>
	<polygon id="XMLID_95_" class="st0" points="602.4,169.1 687.4,393.1 688.8,393.1 603.9,169.1 	"/>
	<polygon id="XMLID_94_" class="st0" points="614.7,169.1 699.6,393.1 701.1,393.1 616.1,169.1 	"/>
	<polygon id="XMLID_93_" class="st0" points="626.9,169.1 711.9,393.1 713.3,393.1 628.4,169.1 	"/>
	<polygon id="XMLID_92_" class="st0" points="639.2,169.1 724.1,393.1 725.5,393.1 640.6,169.1 	"/>
	<polygon id="XMLID_91_" class="st0" points="651.4,169.1 736.3,393.1 737.8,393.1 652.8,169.1 	"/>
	<polygon id="XMLID_90_" class="st0" points="665.1,169.1 663.6,169.1 741.2,373.6 741.2,369.8 	"/>
	<polygon id="XMLID_89_" class="st0" points="677.3,169.1 675.9,169.1 741.2,341.3 741.2,337.5 	"/>
	<polygon id="XMLID_88_" class="st0" points="689.6,169.1 688.1,169.1 741.2,309.1 741.2,305.3 	"/>
	<polygon id="XMLID_87_" class="st0" points="701.8,169.1 700.4,169.1 741.2,276.8 741.2,273 	"/>
	<polygon id="XMLID_86_" class="st0" points="714,169.1 712.6,169.1 741.2,244.5 741.2,240.7 	"/>
	<polygon id="XMLID_85_" class="st0" points="726.3,169.1 724.8,169.1 741.2,212.3 741.2,208.5 	"/>
	<polygon id="XMLID_84_" class="st0" points="738.5,169.1 737.1,169.1 741.2,180 741.2,176.2 	"/>
</g>
</svg>
